<?xml version="1.0" encoding="UTF-8"?>
<svg id="Layer_2" data-name="Layer 2" xmlns="http://www.w3.org/2000/svg" viewBox="0 0 2895.1 861.9">
  <defs>
    <style>
      .cls-1 {
        fill: #fff;
      }

      .cls-2 {
        fill: #e7000b;
      }
    </style>
  </defs>
  <g id="Layer_1-2" data-name="Layer 1">
    <path class="cls-1" d="m1082.11,631.9c-80.44-.9-148.9-1.08-217.32-2.58-87.2-1.9-124.45-40.87-124.6-128.65-.36-204.22,8.83-213.29,212.85-211.89,44.3.31,88.6-.21,134.38-.35-47.14-185.63-251.44-279.63-420.81-199.45-21.46,10.16-42.47,21.77-62.22,34.91-77.32,51.46-155.97,51.24-235.98,7.67C289.13,88.4,210.17,44.67,128.9,0,84.35,97.7,41.13,192.46,0,282.65c89.32,44.62,180.51,89.99,271.52,135.72,81.73,41.07,144.42,99.07,172.46,189.66,44.67,144.28,133.29,244.5,291.31,253.27,161.22,8.94,265.71-82.38,346.81-229.4Z"/>
    <path class="cls-1" d="m965.5,309.31c71.04,0,117.84,39.99,123.37,104.65h-79.98c-7.66-24.67-28.08-37.44-56.15-37.44-44.67,0-80.83,33.18-89.76,85.08-9.36,51.9,15.31,85.51,59.98,85.51,27.65,0,52.75-13.19,69.34-37.86h79.98c-28.5,64.66-89.34,104.23-160.38,104.23-88.06,0-138.69-62.54-122.94-151.87s88.49-152.3,176.55-152.3Z"/>
    <path class="cls-1" d="m1293.92,558.6h-111.46l-27.23,52.75h-76.15l160.81-298.64h84.23l55.3,298.64h-77l-8.51-52.75Zm-25.95-165.91l-57.01,110.61h74.45l-17.44-110.61Z"/>
    <path class="cls-1" d="m1586.91,312.51c73.27,0,102.66,42.17,93.29,94.14-6.39,37.49-33.23,72.84-81.79,86.47l48.14,118.42h-82.22l-42.17-112.89h-17.47l-20.02,112.89h-72.84l52.82-299.04h122.26Zm-14.91,59.64h-45.15l-13.21,74.97h45.15c27.26,0,42.6-14.06,46.86-37.49,4.26-22.58-6.39-37.49-33.65-37.49Z"/>
    <path class="cls-2" d="m1808.25,614.33c-66.79,0-115.71-31.48-108.48-92.31h75.72c-1.7,20.84,10.21,34.88,34.88,34.88,21.27,0,35.73-9.36,35.73-27.65,0-48.07-127.62-36.58-128.48-125.07-.85-60.41,48.5-95.72,116.14-95.72s109.76,34.03,104.23,89.34h-77.43c2.55-18.72-8.93-31.91-30.63-31.91-20.42,0-34.46,10.64-34.46,27.65,0,45.94,128.9,41.27,128.9,129.33,0,52.75-44.24,91.46-116.14,91.46Z"/>
    <path class="cls-2" d="m2161.77,487.56h-113.16l-21.7,123.8h-72.75l52.75-298.64h72.75l-20.85,117.42h113.16l20.85-117.42h72.75l-52.75,298.64h-72.75l21.7-123.8Z"/>
    <path class="cls-2" d="m2766.92,504.15h-45.09l-19.14,107.2h-72.75l52.75-298.64h117.84c73.17,0,102.53,41.27,92.74,96.14-8.51,49.35-50.2,95.29-126.35,95.29Zm4.25-57.01c29.35,0,43.82-15.32,48.07-38.29,4.25-22.97-5.53-38.29-34.46-38.29h-39.56l-13.19,76.58h39.14Z"/>
    <path class="cls-2" d="m2617.55,462.1v1.08c-.5-.13-.99-.26-1.79-.47-2.23,3.25-4.7,6.48-6.77,9.95-8.68,14.54-17.3,29.1-25.81,43.74-5.07,8.71-9.73,17.66-14.87,26.34-9.15,15.46-18.59,30.75-27.76,46.2-4.22,7.12-8.37,14.3-11.34,22.07-.25-.08-.5-.22-.76-.24-5.57-.44-11.13-1.12-16.71-1.26-11.1-.28-22.2-.27-33.3-.36-15.43-.12-30.84.57-46.28.1-16.96-.52-33.93-.53-50.9-.61-7.93-.04-15.86.1-23.63,1.2-1.76-3.64-3.33-7.38-5.32-10.89-9.41-16.51-18.9-32.98-28.44-49.41-3.14-5.41-6.74-10.57-9.77-16.04-5.3-9.57-10.24-19.33-15.47-28.94-7.28-13.37-14.56-26.74-22.88-39.51-1-1.54-2.15-2.98-3.22-4.45-.56.24-.95.4-1.56.66.06-.59.1-.97.15-1.47.56.25.91.41,1.52.68,2.09-3.18,4.36-6.22,6.22-9.5,9.79-17.33,19.49-34.7,29.18-52.09,3.09-5.54,5.7-11.36,9.1-16.69,14.64-22.96,29.74-45.64,42.26-69.77,3.54.33,7.21.86,10.89.97,11.09.33,22.19.63,33.29.69,15.75.08,31.49-.17,47.24-.08,18,.09,36.01.46,54.01.57,8.74.05,17.49-.02,26.04-1.24,1.67,3.51,3.14,7.1,5.02,10.46,7.98,14.26,16.01,28.5,24.17,42.67,4.27,7.42,9.05,14.54,13.23,22.01,7.58,13.56,14.74,27.35,22.35,40.89,5.45,9.69,11.33,19.15,17.07,28.67.96,1.6,2.2,3.04,3.18,4.38.76-.13,1.22-.21,1.67-.29Zm-175.38,77.24c44.43.08,80.79-36.21,80.9-80.73.11-44.53-36.13-80.89-80.75-81.02-44.5-.13-80.86,36.16-80.97,80.8-.11,44.49,36.21,80.87,80.81,80.95Z"/>
  </g>
</svg>