<?xml version="1.0" encoding="UTF-8"?>
<svg id="Layer_2" data-name="Layer 2" xmlns="http://www.w3.org/2000/svg" viewBox="0 0 947.87 558">
  <defs>
    <style>
      .cls-1 {
        fill: #fff;
      }

      .cls-2 {
        fill: #ed2024;
      }
    </style>
  </defs>
  <g id="Layer_1-2" data-name="Layer 1">
    <g>
      <path class="cls-1" d="m947.87,185.71c-1.42,2.4-2.51,4.47-3.81,6.38-6.22,9.12-13.33,17.54-21.12,25.32-4.99,4.98-10.38,9.56-15.66,14.25-1.32,1.17-2.87,2.1-4.38,3.05-2.8,1.77-5.8,2.6-9.2,2.6-57.41-.06-114.83-.04-172.24-.09-1.73,0-2.69.58-3.7,1.95-4.39,5.95-6.21,12.72-6.74,20.27h2.57c56.71,0,113.43.02,170.14-.05,4.16,0,7.66,1.25,10.6,3.96,9.18,8.47,13.58,19,13.09,31.5-.06,1.49-.55,3-1.07,4.42-5.78,15.82-11.59,31.63-17.44,47.43-2.01,5.43-5.72,9.74-9.66,13.83-8.54,8.88-18.4,16.03-29.32,21.71-4.24,2.21-8.71,3.24-13.57,3.23-81.98-.07-163.97-.05-245.95-.05-.82,0-1.64,0-2.74,0,.68-1.88,1.28-3.53,1.88-5.18,5.34-14.77,10.71-29.53,15.97-44.32.57-1.6,1.3-2.06,2.97-2.06,68.43.05,136.85.03,205.28.09,2.01,0,3.35-.54,4.03-2.35,2.26-5.99,4.58-11.97,6.63-18.03.81-2.4.49-2.54-2.07-2.54-56.01,0-112.03-.09-168.04.11-7.33.03-12.8-2.53-17.23-7.99-5.92-7.29-9.37-15.56-9.28-25.05.02-1.99.47-4.06,1.15-5.94,5.69-15.79,11.46-31.55,17.27-47.29,1.91-5.19,5.54-9.25,9.24-13.21,8.68-9.29,18.63-16.92,29.97-22.71,4.32-2.21,8.85-3.28,13.76-3.28,81.86.05,163.71.04,245.57.04.83,0,1.65,0,3.11,0Z"/>
      <path class="cls-1" d="m642.74,185.71c-1.08,1.92-1.87,3.57-2.86,5.09-5.92,9.02-12.8,17.31-20.38,24.94-5.78,5.81-12.02,11.15-18.15,16.59-1.5,1.33-3.29,2.5-5.14,3.24-2.13.86-4.48,1.63-6.74,1.63-57.67.09-115.34.08-173.01.03-1.73,0-2.72.58-3.73,1.94-4.4,5.95-6.15,12.74-6.75,20.27h2.52c56.4,0,112.79.05,169.19-.08,5.57-.01,9.9,1.88,13.53,5.75,7.91,8.44,11.77,18.44,11.16,30.05-.07,1.24-.48,2.5-.91,3.68-5.86,16-11.72,32-17.64,47.97-2.18,5.87-6.33,10.4-10.62,14.76-8.05,8.18-17.29,14.79-27.39,20.21-4.61,2.47-9.45,3.7-14.8,3.69-81.79-.09-163.59-.06-245.38-.06-.88,0-1.76,0-2.99,0,6.26-17.33,12.43-34.4,18.62-51.52.94,0,1.77,0,2.59,0,68.3,0,136.6,0,204.9.05,1.91,0,3.09-.53,3.96-2.18,3.13-5.95,5.26-12.25,6.87-18.75.13-.54.07-1.12.11-1.99h-2.71c-56.14,0-112.28-.06-168.42.08-6.4.02-11.36-2.15-15.46-6.79-6.52-7.37-10.21-15.91-10.34-25.8-.03-2.05.4-4.21,1.1-6.14,5.71-15.85,11.5-31.67,17.33-47.48,1.96-5.32,5.7-9.45,9.49-13.49,8.79-9.36,18.87-17.04,30.38-22.78,4.11-2.05,8.43-2.96,13.06-2.96,81.92.05,163.84.03,245.76.03.8,0,1.6,0,2.86,0Z"/>
      <path class="cls-1" d="m279.16,333.84c-2.53,6.97-4.92,13.54-7.29,20.1-3.59,9.92-7.19,19.84-10.73,29.79-.45,1.27-1.03,1.73-2.42,1.73-56.21-.04-112.41-.04-168.62,0-1.44,0-2.12-.5-2.71-1.75-13.5-28.25-22.72-57.82-27.51-88.76-3.52-22.79-4.48-45.69-2.6-68.67.59-7.22,1.69-14.39,2.61-21.58.08-.66.33-1.41.76-1.91,6.94-8.24,15.19-14.45,26.03-16.55,1.55-.3,3.16-.44,4.74-.44,79.7-.02,159.39-.02,239.09-.02h2.59c-.29.92-.47,1.63-.72,2.31-5.67,15.66-11.38,31.31-16.96,47-.64,1.81-1.51,2.2-3.26,2.2-62.13-.04-124.25-.03-186.38-.07-1.79,0-2.65.48-3.28,2.21-11.27,30.87-22.6,61.72-33.91,92.58-.19.53-.33,1.07-.57,1.83h191.15Z"/>
      <path class="cls-1" d="m372.71,56.66c-1.56-.93-3.12-1.87-4.68-2.8-26.81-16.06-55.39-27.65-86.19-33.34-43.89-8.11-86.57-4.48-127.44,14.26-33.76,15.48-60.66,39.12-81.49,69.73-19.08,28.04-30.86,59.03-36.84,92.31-3.56,19.8-4.83,39.77-4.02,59.86,1.82,45.1,12.89,87.91,32.41,128.55,15.44,32.14,35.43,61.17,60.11,86.91,31.21,32.57,67.39,57.83,109.76,73.84,13.11,4.96,26.55,8.81,40.34,11.38.49.09.97.24,1.44.64-1.56-.14-3.12-.26-4.68-.42-1.58-.15-3.17-.3-4.74-.5-51.88-6.61-97.33-28-137.87-60.38-37.38-29.85-66.73-66.37-88.85-108.72-1.03-1.97-2.14-2.69-4.35-2.62-5.6.17-11.2.06-16.8.06-10.21,0-17.29-6.4-18.63-16.54-.46-3.47-.01-6.66,1.18-9.89,4.1-11.09,8.17-22.19,12.16-33.32.4-1.11.47-2.53.16-3.66-5.86-21.28-9.82-42.88-11.36-64.9-3.3-47.09,3.25-92.52,23.42-135.53,18.06-38.51,44.6-69.7,81.04-92.07,24.94-15.3,52.05-24.49,81.08-27.92,44.83-5.28,87.53,2.68,128.5,21.02,19.71,8.82,38.11,19.87,55.41,32.77.4.3.79.63,1.18.94-.08.11-.16.22-.23.32Z"/>
      <path class="cls-1" d="m103.56,310.7c14.54-17.03,28.74-33.69,43-50.29.53-.62,1.75-.93,2.65-.93,29.09-.05,58.18-.04,87.28-.04h68.99c-.2.7-.31,1.23-.49,1.73-5.75,15.83-11.53,31.65-17.23,47.5-.57,1.58-1.32,2.07-3,2.07-59.65-.05-119.3-.04-178.94-.04h-2.26Z"/>
      <path class="cls-2" d="m360.18,72.37c-3.03,3.29-5.91,6.41-9.03,9.79,15.95,8.83,30.63,19.13,43.96,31.31,13.32,12.17,25.12,25.69,35.9,40.16-36.36-30.27-76.72-52.47-123.96-61.65,2.12-2.44,4.09-4.71,6.06-6.97,2-2.28,4-4.56,6.15-7-.76-.34-1.25-.59-1.76-.78-19.5-6.96-39.51-11.53-60.2-13.13-30.81-2.39-60.68,1.48-89.4,13.12-21.85,8.85-41.14,21.62-58.1,37.98-12.83,12.37-23.35,26.51-32.74,41.57-2.68,4.3-5.62,8.43-8.45,12.65-.16-.07-.32-.14-.49-.2.5-1.84.92-3.71,1.51-5.52,3.89-12.09,10.11-23.03,16.93-33.64,16.48-25.66,37.69-46.46,64.09-61.83,21.6-12.57,44.87-20.28,69.66-23.47,39.07-5.02,76.71.76,113.11,15.28,8.61,3.43,16.9,7.67,25.33,11.54.39.18.76.43,1.41.81Z"/>
      <path class="cls-2" d="m474.57,426.4c-.89,3.27-1.54,6.62-2.7,9.79-4.88,13.32-12.12,25.34-20.85,36.45-21.64,27.56-49.89,44.82-83.75,53.17-19.37,4.78-39.06,5.96-58.92,4.73-36.05-2.23-70.01-12.25-102.48-27.65-8.61-4.08-16.92-8.79-25.37-13.22-.5-.26-.96-.59-1.4-.86,2.75-2.91,5.44-5.77,8.33-8.84-34.45-20.22-62.99-47.12-87.82-78.19,39.47,33.1,82.73,59.36,132.93,73.66-3.94,4.14-7.68,8.09-11.62,12.24.7.36,1.22.66,1.76.9,22.25,9.7,45.28,16.77,69.29,20.5,16.46,2.56,33.01,3.55,49.64,2.33,28.07-2.06,54.36-9.74,78.11-25.21,17.87-11.64,32.31-26.66,43.77-44.62,3.34-5.23,6.95-10.29,10.44-15.42.21.09.42.17.63.26Z"/>
    </g>
  </g>
</svg>